<svg xmlns="http://www.w3.org/2000/svg" width="318" height="500" viewBox="0 0 318 500"><circle fill="#F2F2F2" cx="20" cy="245.5" r="17.5"/><path fill="#0F86B2" d="M6.6 322.3l-6.5 7h13z"/><path fill="#818185" d="M7.2 386.5l-7-6.5v13z"/><path fill="#92A3B3" d="M4 488.5L0 484v9z"/><path fill="#818185" d="M54.1 473.6l-7-6.4v13zm-47.5.1l7 6.5v-13zM26.8 390l6.4-7h-13z"/><path fill="#B8B8B8" d="M6.6 341.3l-6.5 7h13z"/><path fill="#9E9E9E" d="M47.2 367h2v2h-2zm3 3h2v2h-2zm6 0h2v2h-2zm6 0h2v2h-2zm6 0h2v2h-2zm-14.9-3h2v2h-2zm6 0h2v2h-2zm6 0h2v2h-2zm6 0h2v2h-2z"/><path fill="#B8B8B8" d="M60.3 340h1.9v14h-1.9z"/><path fill="#CCC" d="M63.1 341h10.1v8H63.1z"/><path fill="#D35F5F" d="M60.3 320.1h1.9v14h-1.9z"/><path fill="#F89393" d="M63.1 321.1h10.1v8H63.1z"/><path fill="#FE6502" d="M80.3 320.1h14v14h-14z"/><path fill="#FFF" d="M83.5 329.5c-.8 0-1.4.6-1.4 1.4s.6 1.4 1.4 1.4 1.4-.6 1.4-1.4c-.1-.7-.6-1.4-1.4-1.4zm-1.4-4v2a4.76 4.76 0 0 1 4.8 4.8h2c.1-3.8-3.1-6.8-6.8-6.8zm0-3.6v2c4.6 0 8.4 3.8 8.4 8.4h2c0-5.7-4.7-10.4-10.4-10.4z"/><path d="M22.7 347.1l-.9 3.2 3.3-.7zm4.25-4.3l2.47 2.48-3.6 3.6-2.48-2.47zm2.15-1.5c-.4 0-.8.1-1.1.4l-.7.7 2.5 2.5.7-.7c.2-.3.4-.7.4-1.1-.1-1-.8-1.8-1.8-1.8z" fill="#7A7A7A"/><circle fill="#C03433" cx="107" cy="451.8" r="6.5"/><path fill="#FFF" d="M110.2 453.7l-1.9-1.9 1.9-1.9v-.3l-.9-.9c-.1-.1-.1-.1-.2 0h-.1l-1.9 1.9-1.9-1.9h-.3l-.9.9c-.1.1-.1.1 0 .2v.1l1.9 1.9-1.9 1.9v.3l.9.9c.1.1.1.1.2 0h.1l1.9-1.9 1.9 1.9h.3l.9-.9v-.3c0 .1 0 .1 0 0z"/><circle fill="#C03433" cx="47.2" cy="346.9" r="6.5"/><path fill="#FFF" d="M50.3 348.8l-1.9-1.9 1.9-1.9v-.3l-.9-.9c-.1-.1-.1-.1-.2 0h-.1l-1.9 1.9-1.9-1.9H45l-.9.9c-.1.1-.1.1 0 .2v.1l1.9 1.9-1.9 1.9v.3l.9.9c.1.1.1.1.2 0h.1l1.9-1.9 1.9 1.9h.3l.9-.9v-.3c0 .1 0 0 0 0z"/><circle fill="#CCC" cx="47.2" cy="326.1" r="6.5"/><path fill="#FFF" d="M50.3 328.1l-1.9-1.9 1.9-1.9v-.3l-.9-.9c-.1-.1-.1-.1-.2 0h-.1l-2 1.8-1.9-1.9h-.3l-.9.9c-.1.1-.1.1 0 .2v.1l1.9 1.9L44 328v.3l.9.9c.1.1.1.1.2 0h.1l1.9-1.9 1.9 1.9h.3l.9-.9c.1 0 .1-.1.1-.2z"/><circle fill="#F2F2F2" cx="20" cy="193.5" r="17.5"/><path fill="#818185" d="M27.5 198.6L20 187l-7.4 11.6z"/><circle fill="#316EB6" cx="60" cy="193.5" r="17.5"/><path fill="#FFF" d="M67.5 198.6L60 187l-7.4 11.6z"/><circle fill="#316EB6" cx="60" cy="245.5" r="17.5"/><path fill="#FFF" d="M52.5 240.5l7.5 11.6 7.3-11.6z"/><circle fill="#CCF1AF" cx="60" cy="290.5" r="17.5"/><circle fill="#F2F2F2" cx="22" cy="290.5" r="17.5"/><circle fill="#F2F2F2" cx="20" cy="245.5" r="17.5"/><path fill="#818185" d="M12.5 240.5l7.5 11.6 7.3-11.6z"/><path fill="#7CA75A" d="M68.3 286.9l-10 10c-.3.3-.7.3-.9 0l-5.7-5.8c-.3-.3-.3-.7 0-.9l1.4-1.4c.3-.3.7-.3.9 0l3.9 3.9 8.2-8.2c.3-.3.7-.3.9 0l1.4 1.4c.3.3.3.7-.1 1z"/><path fill="#818185" d="M31.3 286.9l-10 10c-.3.3-.7.3-.9 0l-5.7-5.8c-.3-.3-.3-.7 0-.9l1.4-1.4c.3-.3.7-.3.9 0l3.9 3.9 8.2-8.2c.3-.3.7-.3.9 0l1.4 1.4c.3.3.3.7-.1 1zM25 134.7l6-5.9-8.3-1.2L19 120l-3.8 7.6-8.1 1.2 6 5.9-1.4 8.3 7.3-3.9 7.3 3.9z"/><g fill="#FFD83D"><path d="M59 138.5l-6.8 3.6 1.3-7.6-5.4-5.4 7.6-1.1 3.3-6.9 3.3 6.9 7.5 1.1-5.3 5.4 1.2 7.6z"/><path d="M59 122.3l2.8 5.7.2.5.5.1 6.3.9-4.6 4.5-.4.4.1.5 1.1 6.3-5.6-3-.5-.2-.5.2-5.6 3 1.1-6.3.1-.5-.4-.4-4.6-4.5 6.3-.9.5-.1.2-.5 3-5.7m0-2.3l-3.7 7.6-8.3 1.2 6 5.9-1.4 8.3 7.4-3.9 7.4 3.9-1.4-8.3 6-5.9-8.3-1.2L59 120z"/></g><path fill="#44B449" d="M33.1 323.6l-7.2 7.2c-.2.2-.5.2-.7 0l-4.1-4.2c-.2-.2-.2-.5 0-.7l1-1c.2-.2.5-.2.7 0l2.8 2.8 5.9-5.9c.2-.2.5-.2.7 0l1 1c.1.3.1.6-.1.8z"/><circle fill="#C96" cx="65.1" cy="405" r="3"/><circle fill="#C5C5C5" cx="85.1" cy="405" r="3"/><circle fill="#FC0" cx="105.1" cy="405" r="3"/><path fill="#C5C5C5" d="M.2 400v31h3.4c.3-5.5 3.7-10.1 8.3-11.8V418a6.72 6.72 0 0 1 3.8-12.3 6.72 6.72 0 0 1 3.8 12.3v1.2c4.6 1.7 8 6.3 8.3 11.8h3.4v-31H.2z"/><path fill="#FFF" d="M3.7 431H28c-.3-5.5-3.7-10.1-8.3-11.8V418a6.72 6.72 0 0 0-3.8-12.3 6.72 6.72 0 0 0-3.8 12.3v1.2c-4.5 1.7-8 6.3-8.4 11.8z"/><path fill="#3A589A" d="M20 70h16v16H20z"/><path fill="#FFF" d="M30.3 85h-2.1v-5.5h-1.4v-1.9h1.4v-1.1c0-1.6.4-2.5 2.3-2.5H32v1.9h-1c-.7 0-.7.3-.7.8v1H32l-.2 1.9h-1.5V85z"/><path fill="#DD4B39" d="M40 70h16v16H40z"/><path fill="#FFF" d="M48.4 73.7h-2.7c-1.2 0-2.3.9-2.3 2s.8 1.9 2 1.9h.2c-.1.2-.1.3-.1.5 0 .3.2.5.4.7h-.5c-1.5 0-2.6.9-2.6 1.9s1.3 1.6 2.7 1.6c1.7 0 2.6-1 2.6-1.9 0-.8-.2-1.2-.9-1.7-.2-.2-.7-.6-.7-.8 0-.3.1-.4.5-.8.4-.3.8-.8.8-1.4 0-.7-.3-1.3-.9-1.5h.8l.7-.5zm-.9 6.5v.3c0 .8-.5 1.4-1.9 1.4-1 0-1.8-.6-1.8-1.4s.9-1.4 1.9-1.4c.2 0 .5 0 .7.1.6.4 1 .6 1.1 1zm-1.6-2.9c-.7 0-1.3-.8-1.5-1.7s.3-1.6 1-1.6 1.3.7 1.5 1.7c.2 1-.3 1.6-1 1.6zm5.3-1.7v-1.9h-.6v1.9h-1.9v.6h1.9v1.9h.6v-1.9h1.9v-.6h-1.9z"/><path fill="#28AAE1" d="M60 70h16v16H60z"/><path fill="#FFF" d="M71.9 75.5l-.9.3c.3-.2.6-.5.7-.9-.3.2-.7.3-1 .4-.3-.3-.7-.5-1.2-.5-.9 0-1.6.7-1.6 1.6v.4c-1.3-.1-2.5-.7-3.3-1.7a1.75 1.75 0 0 0 .5 2.2c-.3 0-.5-.1-.7-.2 0 .8.6 1.4 1.3 1.6-.1 0-.3.1-.4.1H65c.2.6.8 1.1 1.5 1.1-.6.4-1.3.7-2 .7h-.4c.7.5 1.6.7 2.5.7 3 0 4.6-2.5 4.6-4.6v-.2c.2-.3.5-.6.7-1z"/><path fill="#818185" d="M0 70h16v16H0z"/><path fill="#FFF" d="M11.7 74.3H4.3c-.5 0-.9.4-.9.9v5.5c0 .5.4.9.9.9h7.4c.5 0 .9-.4.9-.9v-5.5c0-.5-.4-.9-.9-.9zm0 1.9L8 78.5l-3.7-2.3v-.9L8 77.5l3.7-2.3v1z"/></svg>